Coordinates
version=1
nRows=14
nColumns=24
inDegrees=yes

Units are S.I. units (second, meters, Newtons, ...)
Angles are in degrees.

endheader
time	pelvis_tilt	pelvis_list	pelvis_rotation	pelvis_tx	pelvis_ty	pelvis_tz	hip_flexion_r	hip_adduction_r	hip_rotation_r	knee_angle_r	ankle_angle_r	subtalar_angle_r	mtp_angle_r	hip_flexion_l	hip_adduction_l	hip_rotation_l	knee_angle_l	ankle_angle_l	subtalar_angle_l	mtp_angle_l	lumbar_extension	lumbar_bending	lumbar_rotation
      3.57000000	     60.04009101	    -17.20660078	      2.98616942	      0.53354664	      0.95740046	     -0.23688225	      5.75042052	     -8.73459643	    -21.23278694	    -64.64943172	    -16.76022509	      0.00000000	      0.00000000	     13.67538514	    -15.12973235	     11.75206414	    -64.77885354	    -24.78644459	      0.00000000	      0.00000000	      0.00000000	      0.00000000	      0.00000000
      3.58000000	     60.07284493	    -17.24467001	      2.99653607	      0.53355273	      0.95735357	     -0.23685618	      5.73113448	     -8.68829427	    -21.34910033	    -64.58583657	    -16.76108357	      0.00000000	      0.00000000	     13.66759476	    -15.09263401	     11.55222075	    -64.52255034	    -24.74063113	      0.00000000	      0.00000000	      0.00000000	      0.00000000	      0.00000000
      3.59000000	     60.10584445	    -17.28205503	      3.00718096	      0.53360255	      0.95729343	     -0.23684063	      5.70945530	     -8.64126483	    -21.46209514	    -64.52497645	    -16.76736033	      0.00000000	      0.00000000	     13.65197628	    -15.04822436	     11.33854802	    -64.28807564	    -24.71059123	      0.00000000	      0.00000000	      0.00000000	      0.00000000	      0.00000000
      3.60000000	     60.13477356	    -17.31572539	      3.01585914	      0.53363534	      0.95725736	     -0.23684342	      5.69049735	     -8.59391062	    -21.57118625	    -64.46381036	    -16.77753131	      0.00000000	      0.00000000	     13.63176337	    -14.99254707	     11.11164937	    -64.07038926	    -24.69760612	      0.00000000	      0.00000000	      0.00000000	      0.00000000	      0.00000000
      3.61000000	     60.15682650	    -17.34442705	      3.02016044	      0.53360452	      0.95728161	     -0.23684266	      5.67659385	     -8.54685949	    -21.67575261	    -64.40095382	    -16.78958845	      0.00000000	      0.00000000	     13.60852131	    -14.92417336	     10.87196479	    -63.86508810	    -24.70091872	      0.00000000	      0.00000000	      0.00000000	      0.00000000	      0.00000000
      3.62000000	     60.17133897	    -17.36744087	      3.01823634	      0.53354930	      0.95735009	     -0.23681554	      5.66621558	     -8.50048678	    -21.77549261	    -64.33712639	    -16.80179462	      0.00000000	      0.00000000	     13.58072100	    -14.84529667	     10.62006171	    -63.66951296	    -24.71779128	      0.00000000	      0.00000000	      0.00000000	      0.00000000	      0.00000000
      3.63000000	     60.17970147	    -17.38462595	      3.01039048	      0.53352981	      0.95741365	     -0.23676609	      5.65589887	     -8.45549299	    -21.87008992	    -64.27340630	    -16.81318830	      0.00000000	      0.00000000	     13.54395330	    -14.76066480	     10.35624327	    -63.48292893	    -24.74394473	      0.00000000	      0.00000000	      0.00000000	      0.00000000	      0.00000000
      3.64000000	     60.18543775	    -17.39708383	      2.99914062	      0.53355222	      0.95744928	     -0.23671444	      5.64261860	     -8.41297089	    -21.95892614	    -64.20955470	    -16.82386922	      0.00000000	      0.00000000	     13.49321558	    -14.67463132	     10.08021790	    -63.30601681	    -24.77428362	      0.00000000	      0.00000000	      0.00000000	      0.00000000	      0.00000000
      3.65000000	     60.19345569	    -17.40668903	      2.98720094	      0.53358708	      0.95747936	     -0.23666863	      5.62425671	     -8.37323138	    -22.04148037	    -64.14454275	    -16.83500741	      0.00000000	      0.00000000	     13.42527220	    -14.58893871	      9.79151449	    -63.14044691	    -24.80389697	      0.00000000	      0.00000000	      0.00000000	      0.00000000	      0.00000000
      3.66000000	     60.20775025	    -17.41482737	      2.97569046	      0.53360999	      0.95753289	     -0.23662066	      5.59883536	     -8.33509894	    -22.11790235	    -64.07833105	    -16.84836707	      0.00000000	      0.00000000	     13.33926614	    -14.50305893	      9.49028037	    -62.98871605	    -24.82910270	      0.00000000	      0.00000000	      0.00000000	      0.00000000	      0.00000000
      3.67000000	     60.22982126	    -17.42173929	      2.96396853	      0.53361255	      0.95761209	     -0.23655869	      5.56443060	     -8.29671615	    -22.18900520	    -64.01260498	    -16.86534596	      0.00000000	      0.00000000	     13.23629887	    -14.41608213	      9.17789403	    -62.85388364	    -24.84814597	      0.00000000	      0.00000000	      0.00000000	      0.00000000	      0.00000000
      3.68000000	     60.25914097	    -17.42680699	      2.95069925	      0.53359275	      0.95770568	     -0.23648739	      5.52015382	     -8.25707096	    -22.25549797	    -63.94975282	    -16.88599416	      0.00000000	      0.00000000	     13.11911573	    -14.32836236	      8.85716066	    -62.73905669	    -24.86127770	      0.00000000	      0.00000000	      0.00000000	      0.00000000	      0.00000000
      3.69000000	     60.29428601	    -17.42979660	      2.93533302	      0.53355227	      0.95781200	     -0.23642650	      5.46709110	     -8.21708190	    -22.31707476	    -63.89124416	    -16.90869090	      0.00000000	      0.00000000	     12.99172421	    -14.24170973	      8.53184482	    -62.64694849	    -24.87017355	      0.00000000	      0.00000000	      0.00000000	      0.00000000	      0.00000000
      3.70000000	     60.33334332	    -17.43178772	      2.91883263	      0.53350464	      0.95793428	     -0.23638437	      5.40827457	     -8.17908134	    -22.37248164	    -63.83707535	    -16.93078576	      0.00000000	      0.00000000	     12.85857491	    -14.15824715	      8.20572015	    -62.57984085	    -24.87699298	      0.00000000	      0.00000000	      0.00000000	      0.00000000	      0.00000000
